<svg xmlns="http://www.w3.org/2000/svg" viewBox="0 0 512 512">
  <rect width="512" height="512" rx="96" fill="#0a0a0a"/>
  <!-- Calorie ring -->
  <circle cx="256" cy="230" r="120" fill="none" stroke="#1a1a1a" stroke-width="20"/>
  <circle cx="256" cy="230" r="120" fill="none" stroke="#a3e635" stroke-width="20"
    stroke-linecap="round" stroke-dasharray="565" stroke-dashoffset="170"
    transform="rotate(-90 256 230)"/>
  <!-- Flame icon -->
  <path d="M256 175 c-8 20-25 35-25 55 c0 20 12 35 25 40 c13-5 25-20 25-40 c0-20-17-35-25-55z"
    fill="#a3e635" opacity="0.9"/>
  <path d="M256 200 c-4 10-12 18-12 28 c0 10 6 18 12 20 c6-2 12-10 12-20 c0-10-8-18-12-28z"
    fill="#0a0a0a" opacity="0.8"/>
  <!-- Nutrient bars -->
  <rect x="136" y="370" width="240" height="8" rx="4" fill="#1a1a1a"/>
  <rect x="136" y="370" width="180" height="8" rx="4" fill="#22d3ee"/>
  <rect x="136" y="390" width="240" height="8" rx="4" fill="#1a1a1a"/>
  <rect x="136" y="390" width="150" height="8" rx="4" fill="#34d399"/>
  <rect x="136" y="410" width="240" height="8" rx="4" fill="#1a1a1a"/>
  <rect x="136" y="410" width="100" height="8" rx="4" fill="#f97316"/>
</svg>
